<svg width="18" height="18" viewBox="0 0 18 18" fill="none" xmlns="http://www.w3.org/2000/svg">
  <path d="M4.5 3C4.5 2.58579 4.83579 2.25 5.25 2.25H12.75C13.1642 2.25 13.5 2.58579 13.5 3C13.5 3.41421 13.1642 3.75 12.75 3.75H6.9375C7.45 4.2 8.25 5.1 8.25 6C8.25 6.9 7.675 7.4375 7.2125 7.7625L5.625 9H9.75C10.1642 9 10.5 9.33579 10.5 9.75C10.5 10.1642 10.1642 10.5 9.75 10.5H5.25C4.83579 10.5 4.5 10.1642 4.5 9.75C4.5 9.45951 4.63047 9.1875 4.84375 9L7.2125 7.5375C7.61875 7.275 7.875 7.0875 7.875 6.5C7.875 5.8875 7.38125 5.4875 6.9375 5.125H12.75C13.1642 5.125 13.5 4.85 13.5 4.5C13.5 4.16421 13.1642 3.875 12.75 3.875H5.25C4.83579 3.875 4.5 3.56421 4.5 3.25V3ZM5.5 11.5C5.5 11.0858 5.83579 10.75 6.25 10.75H8.625L6.7125 12.0875C6.275 12.4125 6.0625 12.7125 6.0625 13.25C6.0625 13.9125 6.55 14.5 7.1875 14.75H9.25C9.66421 14.75 10 15.0858 10 15.5C10 15.9142 9.66421 16.25 9.25 16.25H6.875C5.65 16.25 4.75 15.1625 4.75 14.0625C4.75 13.175 5.125 12.4875 5.625 12.1375L8.0625 10.75H6.25C5.83579 10.75 5.5 11.0858 5.5 11.5Z" fill="#0044EB"/>
</svg>
